<svg xmlns:dc="http://purl.org/dc/elements/1.1/" xmlns:cc="http://creativecommons.org/ns#" xmlns:rdf="http://www.w3.org/1999/02/22-rdf-syntax-ns#" xmlns:svg="http://www.w3.org/2000/svg" xmlns="http://www.w3.org/2000/svg" xmlns:sodipodi="http://sodipodi.sourceforge.net/DTD/sodipodi-0.dtd" xmlns:inkscape="http://www.inkscape.org/namespaces/inkscape" inkscape:version="1.0 (6e3e5246a0, 2020-05-07)" sodipodi:docname="sun.svg" id="svg6" viewBox="0 0 300 300" version="1.1" height="300" width="300">
  <metadata id="metadata12">
    <rdf:RDF>
      <cc:Work rdf:about="">
        <dc:format>image/svg+xml</dc:format>
        <dc:type rdf:resource="http://purl.org/dc/dcmitype/StillImage"/>
        <dc:title/>
      </cc:Work>
    </rdf:RDF>
  </metadata>
  <defs id="defs10"/>
  <sodipodi:namedview inkscape:current-layer="svg6" inkscape:window-maximized="0" inkscape:window-y="108" inkscape:window-x="185" inkscape:cy="84.735706" inkscape:cx="332.54338" inkscape:zoom="0.81875" showgrid="false" id="namedview8" inkscape:window-height="930" inkscape:window-width="1534" inkscape:pageshadow="2" inkscape:pageopacity="0" guidetolerance="10" gridtolerance="10" objecttolerance="10" borderopacity="1" bordercolor="#666666" pagecolor="#ffffff"/>
  <g id="g4" transform="matrix(9.4364095,0,0,8.4684454,1.2536677,-2236.3389)">
    <g><path id="path2" stroke-width="0.26458" stroke="#000000" fill="none" d="m 23.34,287.17 -5.4331,-1.7476 0.90671,5.6348 -3.6258,-4.4075 -2.2836,5.2305 -0.66734,-5.6681 -4.7489,3.1655 2.503,-5.1291 -5.7064,0.0956 4.8786,-2.9616 -4.8522,-3.0047 5.7054,0.14611 -2.4575,-5.151 4.7207,3.2075 0.71751,-5.662 2.2372,5.2505 3.6647,-4.3752 -0.95658,5.6265 5.4484,-1.6994 -3.8466,4.2162 5.5022,1.516 -5.5154,1.4672 z" transform="matrix(1.2766,0,0,1.3338,-3.9996,-93.933)"/>
  <path style="stroke:#000000;fill:none;stroke-width:0.085817" d="M 4.604393,278.385314 l 0.000000,0.174187 M 4.604393,284.338742 l 0.000000,-0.188794 M 4.853428,278.391692 l 0.000000,0.322022 M 4.853428,284.334570 l 0.000000,-0.335800 M 5.102462,278.398069 l 0.000000,0.469858 M 5.102462,284.330398 l 0.000000,-0.482807 M 5.351497,278.404447 l 0.000000,0.617694 M 5.351497,284.326226 l 0.000000,-0.629814 M 5.600531,278.410824 l 0.000000,0.765530 M 5.600531,284.322054 l 0.000000,-0.776820 M 5.849566,278.417202 l 0.000000,0.913366 M 5.849566,284.317881 l 0.000000,-0.923827 M 6.098601,278.423580 l 0.000000,1.061202 M 6.098601,284.313709 l 0.000000,-1.070834 M 6.347635,278.429957 l 0.000000,1.209037 M 6.347635,284.309537 l 0.000000,-1.217840 M 6.596670,278.436335 l 0.000000,1.356873 M 6.596670,284.305365 l 0.000000,-1.364847 M 6.845704,278.442712 l 0.000000,1.504709 M 6.845704,284.301193 l 0.000000,-1.511854 M 7.094739,278.449090 l 0.000000,1.652545 M 7.094739,284.297021 l 0.000000,-1.658860 M 7.343773,278.455467 l 0.000000,1.800381 M 7.343773,284.292849 l 0.000000,-1.805867 M 7.592808,278.461845 l 0.000000,1.948217 M 7.592808,284.288677 l 0.000000,-1.952874 M 7.592808,289.162768 l 0.000000,0.144950 M 7.841843,273.966030 l 0.000000,-0.400853 M 7.841843,278.468222 l 0.000000,2.096052 M 7.841843,284.284505 l 0.000000,-2.099880 M 7.841843,288.652451 l 0.000000,0.489266 M 8.090877,274.488014 l 0.000000,-0.753630 M 8.090877,278.474600 l 0.000000,2.243888 M 8.090877,284.280332 l 0.000000,-2.246887 M 8.090877,288.142134 l 0.000000,0.833583 M 8.339912,275.009999 l 0.000000,-1.106407 M 8.339912,278.480977 l 0.000000,2.391724 M 8.339912,284.276160 l 0.000000,-2.393894 M 8.339912,287.631817 l 0.000000,1.177899 M 8.588946,275.531983 l 0.000000,-1.459184 M 8.588946,278.487355 l 0.000000,2.539560 M 8.588946,284.271988 l 0.000000,-2.540900 M 8.588946,287.121500 l 0.000000,1.522216 M 8.837981,276.053968 l 0.000000,-1.811961 M 8.837981,278.493733 l 0.000000,2.687396 M 8.837981,284.267816 l 0.000000,-2.687907 M 8.837981,286.611183 l 0.000000,1.866533 M 9.087015,276.575953 l 0.000000,-2.164738 M 9.087015,278.500110 l 0.000000,2.835232 M 9.087015,284.263644 l 0.000000,-2.834914 M 9.087015,286.100867 l 0.000000,2.210849 M 9.336050,277.097937 l 0.000000,-2.517514 M 9.336050,278.506488 l 0.000000,5.752984 M 9.336050,288.145715 l 0.000000,-2.555166 M 9.585085,274.749630 l 0.000000,2.870291 M 9.585085,284.255300 l 0.000000,-5.742435 M 9.585085,285.080233 l 0.000000,2.899482 M 9.834119,278.141906 l 0.000000,-3.223068 M 9.834119,278.519243 l 0.000000,5.731885 M 9.834119,287.813715 l 0.000000,-3.243799 M 10.083154,275.088045 l 0.000000,12.559669 M 10.332188,287.481714 l 0.000000,-12.224461 M 10.581223,275.426461 l 0.000000,11.889253 M 10.830257,287.149713 l 0.000000,-11.554045 M 11.079292,275.764876 l 0.000000,11.218837 M 11.328327,286.817713 l 0.000000,-10.883629 M 11.577361,276.103291 l 0.000000,10.548421 M 11.826396,286.485712 l 0.000000,-10.213213 M 12.075430,276.441706 l 0.000000,9.878005 M 12.324465,286.956093 l 0.000000,-10.729956 M 12.573499,274.260961 l 0.000000,14.810325 M 12.822534,291.186479 l 0.000000,-18.890694 M 13.071569,271.093228 l 0.000000,20.403644 M 13.320603,290.926467 l 0.000000,-19.248779 M 13.569638,272.262149 l 0.000000,18.093914 M 13.818672,289.785659 l 0.000000,-16.939048 M 14.067707,273.431071 l 0.000000,15.784183 M 14.316741,288.644850 l 0.000000,-14.629318 M 14.565776,274.599993 l 0.000000,13.474452 M 14.814810,287.504041 l 0.000000,-12.319587 M 15.063845,275.768915 l 0.000000,11.164722 M 15.312880,286.801734 l 0.000000,-10.726662 M 15.561914,275.777755 l 0.000000,11.326704 M 15.810949,287.407184 l 0.000000,-11.926745 M 16.059983,275.183122 l 0.000000,12.526786 M 16.309018,288.012633 l 0.000000,-13.126828 M 16.558052,274.588489 l 0.000000,13.726869 M 16.807087,288.618083 l 0.000000,-14.326911 M 17.056122,273.993856 l 0.000000,14.926952 M 17.305156,289.223533 l 0.000000,-15.526994 M 17.554191,273.399223 l 0.000000,16.127035 M 17.803225,289.828983 l 0.000000,-16.727077 M 18.052260,272.804589 l 0.000000,3.969437 M 18.052260,285.469156 l 0.000000,-8.083212 M 18.052260,286.325747 l 0.000000,3.805960 M 18.301294,275.309232 l 0.000000,-2.801959 M 18.301294,277.308268 l 0.000000,8.240992 M 18.301294,290.434432 l 0.000000,-2.561046 M 18.550329,272.209956 l 0.000000,1.634481 M 18.550329,285.629364 l 0.000000,-8.398772 M 18.550329,289.421026 l 0.000000,1.316132 M 18.799364,272.379643 l 0.000000,-0.467003 M 18.799364,277.152916 l 0.000000,8.556552 M 19.048398,285.789572 l 0.000000,-8.714332 M 19.297433,276.997564 l 0.000000,8.872112 M 19.546467,285.949780 l 0.000000,-9.029891 M 19.795502,276.842213 l 0.000000,2.819349 M 19.795502,282.849848 l 0.000000,-2.843597 M 19.795502,283.215321 l 0.000000,2.814563 M 20.044536,279.388599 l 0.000000,-2.624062 M 20.044536,280.074866 l 0.000000,2.708734 M 20.044536,286.109988 l 0.000000,-2.616813 M 20.293571,276.686861 l 0.000000,2.428775 M 20.293571,282.717352 l 0.000000,-2.573870 M 20.293571,283.771028 l 0.000000,2.419064 M 20.542606,278.842673 l 0.000000,-2.233488 M 20.542606,280.212097 l 0.000000,2.439007 M 20.542606,286.270196 l 0.000000,-2.221314 M 20.791640,276.531509 l 0.000000,2.038201 M 20.791640,282.584856 l 0.000000,-2.304144 M 20.791640,284.326736 l 0.000000,2.023564 M 21.040675,278.296747 l 0.000000,-1.842914 M 21.040675,280.349328 l 0.000000,2.169280 M 21.040675,286.430404 l 0.000000,-1.825814 M 21.289709,276.376157 l 0.000000,1.647627 M 21.289709,282.452360 l 0.000000,-2.034417 M 21.289709,284.882443 l 0.000000,1.628065 M 21.538744,277.750821 l 0.000000,-1.452339 M 21.538744,280.486559 l 0.000000,1.899553 M 21.538744,286.590612 l 0.000000,-1.430315 M 21.787778,276.220805 l 0.000000,1.257052 M 21.787778,282.319865 l 0.000000,-1.764690 M 21.787778,285.438150 l 0.000000,1.232565 M 22.036813,277.204895 l 0.000000,-1.061765 M 22.036813,280.623790 l 0.000000,1.629827 M 22.036813,286.750819 l 0.000000,-1.034816 M 22.285848,276.065454 l 0.000000,0.866478 M 22.285848,282.187369 l 0.000000,-1.494963 M 22.285848,285.993858 l 0.000000,0.837066 M 22.534882,276.658969 l 0.000000,-0.671191 M 22.534882,280.761021 l 0.000000,1.360100 M 22.534882,286.911027 l 0.000000,-0.639316 M 22.783917,275.910102 l 0.000000,0.475904 M 22.783917,282.054873 l 0.000000,-1.225236 M 22.783917,286.549565 l 0.000000,0.441566 M 23.032951,276.113043 l 0.000000,-0.280617 M 23.032951,280.898252 l 0.000000,1.090373 M 23.032951,287.071235 l 0.000000,-0.243817 M 23.281986,280.966868 l 0.000000,0.955510 M 23.531020,281.856129 l 0.000000,-0.820646 M 23.780055,281.104099 l 0.000000,0.685783 M 24.029090,281.723634 l 0.000000,-0.550919 M 24.278124,281.241330 l 0.000000,0.416056 M 24.527159,281.591138 l 0.000000,-0.281193 M 24.776193,281.378561 l 0.000000,0.146329" transform="matrix(1.2766,0,0,1.3338,-3.9996,-93.933)"/></g></g>
</svg>